<svg xmlns="http://www.w3.org/2000/svg" xmlns:xlink="http://www.w3.org/1999/xlink" id="visual" version="1.1" viewBox="0 400.91 900 200.09"><path d="M0 421L25 417.8C50 414.7 100 408.3 150 404.3C200 400.3 250 398.7 300 406C350 413.3 400 429.7 450 443.2C500 456.7 550 467.3 600 464C650 460.7 700 443.3 750 434.8C800 426.3 850 426.7 875 426.8L900 427L900 601L875 601C850 601 800 601 750 601C700 601 650 601 600 601C550 601 500 601 450 601C400 601 350 601 300 601C250 601 200 601 150 601C100 601 50 601 25 601L0 601Z" fill="#ffffff" stroke-linecap="round" stroke-linejoin="miter"/></svg>